<svg width="182" height="30" fill="none" xmlns="http://www.w3.org/2000/svg"><g filter="url(#filter0_d)"><path fill-rule="evenodd" clip-rule="evenodd" d="M18.816 1.627c-1.16-.418-2.51-.627-4.05-.627H5v20h10.236c1.558 0 2.92-.227 4.083-.683 1.165-.454 2.07-1.109 2.714-1.963.645-.854.967-1.843.967-2.967 0-1.263-.35-2.354-1.048-3.273-.698-.919-1.625-1.513-2.78-1.783.994-.306 1.784-.85 2.37-1.629a4.29 4.29 0 00.88-2.646c0-1.012-.31-1.9-.933-2.66-.623-.762-1.514-1.351-2.673-1.77zM14.714 9H12V7h2.714c.39 0 .7.09.935.27.234.18.351.416.351.71a.899.899 0 01-.351.74c-.234.187-.546.28-.935.28zM10 16h3.668c.707 0 1.273-.146 1.697-.438.423-.293.635-.672.635-1.137 0-.43-.214-.774-.643-1.035-.43-.26-.992-.39-1.69-.39H10v3zm35.842.913c.772-1.305 1.158-2.818 1.158-4.54V1h-6.55v11.374c0 .97-.268 1.746-.806 2.328-.538.581-1.22.872-2.047.872a2.92 2.92 0 01-2.158-.9c-.593-.6-.89-1.366-.89-2.3V1H28v11.374c0 1.721.395 3.234 1.186 4.54.79 1.304 1.91 2.312 3.357 3.021 1.448.71 3.123 1.065 5.026 1.065 1.903 0 3.564-.355 4.984-1.065s2.517-1.717 3.289-3.021zM62.567 1c1.511 0 3.018.209 4.52.626 1.502.417 2.806.98 3.913 1.687L68.68 8.21a24.918 24.918 0 00-3.556-1.592c-1.282-.463-2.319-.694-3.11-.694-.792 0-1.188.272-1.188.817 0 .408.25.727.749.959.5.231 1.289.487 2.368.768 1.403.372 2.561.753 3.475 1.143.913.39 1.713.998 2.401 1.823.688.826 1.033 1.928 1.033 3.306 0 1.397-.362 2.563-1.087 3.497-.724.934-1.704 1.628-2.941 2.082-1.237.453-2.611.68-4.122.68-1.71 0-3.434-.272-5.175-.816-1.74-.544-3.25-1.311-4.527-2.3l2.388-4.843c.98.816 2.206 1.526 3.677 2.13 1.471.602 2.701.904 3.69.904 1.035 0 1.552-.336 1.552-1.007 0-.426-.254-.755-.762-.986-.508-.232-1.325-.488-2.449-.77-1.367-.335-2.51-.688-3.427-1.06a6.1 6.1 0 01-2.382-1.742c-.67-.789-1.005-1.841-1.005-3.156 0-1.28.34-2.397 1.019-3.354.679-.957 1.646-1.696 2.9-2.218C59.457 1.261 60.912 1 62.568 1zM76 1v20h7V1h-7zm26.593 20l-7.696-10.209V21H89V1h5.42l7.723 10.279V1H108v20h-5.407zm18.97-12.52V6.027h10.189V1H115v20h17v-5.014h-10.437v-2.493h9.251V8.479h-9.251zM145.567 1c1.511 0 3.018.209 4.52.626 1.502.417 2.807.98 3.913 1.687l-2.321 4.898a24.88 24.88 0 00-3.555-1.592c-1.282-.463-2.319-.694-3.111-.694-.791 0-1.187.272-1.187.817 0 .408.25.727.749.959.499.231 1.289.487 2.368.768 1.403.372 2.561.753 3.475 1.143.913.39 1.713.998 2.401 1.823.688.826 1.033 1.928 1.033 3.306 0 1.397-.362 2.563-1.087 3.497-.724.934-1.704 1.628-2.941 2.082-1.237.453-2.611.68-4.122.68-1.71 0-3.434-.272-5.175-.816-1.741-.544-3.25-1.311-4.527-2.3l2.388-4.843c.981.816 2.206 1.526 3.677 2.13 1.471.602 2.701.904 3.691.904 1.034 0 1.551-.336 1.551-1.007 0-.426-.254-.755-.762-.986-.508-.232-1.325-.488-2.449-.77-1.367-.335-2.51-.688-3.427-1.06a6.097 6.097 0 01-2.382-1.742c-.67-.789-1.005-1.841-1.005-3.156 0-1.28.339-2.397 1.019-3.354.679-.957 1.646-1.696 2.901-2.218 1.255-.521 2.71-.782 4.365-.782zm27.52.626a16.82 16.82 0 00-4.52-.626c-1.655 0-3.11.26-4.365.782-1.255.522-2.222 1.261-2.901 2.218-.68.957-1.019 2.075-1.019 3.354 0 1.315.335 2.367 1.005 3.156a6.09 6.09 0 002.382 1.742c.917.372 2.06.725 3.427 1.06 1.124.282 1.941.538 2.449.77.508.23.762.56.762.986 0 .671-.517 1.007-1.551 1.007-.99 0-2.22-.302-3.691-.905-1.471-.603-2.696-1.313-3.677-2.13L159 17.885c1.277.989 2.786 1.756 4.527 2.3 1.741.544 3.465.816 5.175.816 1.511 0 2.885-.227 4.122-.68 1.237-.454 2.217-1.148 2.941-2.082.725-.934 1.087-2.1 1.087-3.496 0-1.38-.345-2.481-1.033-3.307-.688-.825-1.488-1.433-2.401-1.823-.914-.39-2.072-.77-3.475-1.143-1.079-.28-1.869-.537-2.368-.768-.499-.232-.749-.551-.749-.96 0-.544.396-.816 1.187-.816.792 0 1.829.231 3.111.694a24.88 24.88 0 013.555 1.592L177 3.313c-1.106-.708-2.411-1.27-3.913-1.687z" fill="#007397"/><path d="M5 1V.5h-.5V1H5zm0 20h-.5v.5H5V21zm14.172-10.668l-.148-.478-1.767.545 1.801.42.114-.488zm2.37-1.63l-.4-.3.4.3zM12 9h-.5v.5h.5V9zm0-2v-.5h-.5V7h.5zm-2 9h-.5v.5h.5V16zm5.365-.438l-.284-.412.284.412zm-.008-2.172l-.26.428.26-.428zM10 13v-.5h-.5v.5h.5zm35.842 3.913l-.43-.254.43.255zM47 1h.5V.5H47V1zm-6.55 0V.5h-.5V1h.5zm-5.9 0h.5V.5h-.5V1zM28 1V.5h-.5V1h.5zm1.186 15.913l-.428.26.428-.26zM67.087 1.626l-.134.482.134-.482zM71 3.313l.452.214.189-.398-.372-.237-.269.42zM68.68 8.21l-.242.438.466.256.227-.48-.452-.214zm-4.737.258l.128-.483h-.002l-.126.483zm5.876 2.966l-.384.32.384-.32zm-.054 6.803l-.395-.306.395.306zm-2.941 2.082l-.172-.47.172.47zM53 17.884l-.448-.22-.181.366.323.25.306-.396zm2.388-4.843l.32-.384-.487-.406-.281.569.448.22zm8.157 1.04l-.207.456.207-.455zm-2.449-.768l.121-.485h-.002l-.119.485zm-5.809-2.803l-.381.324.381-.324zM55.301 4l-.408-.29.408.29zm2.9-2.218l-.191-.461.192.461zM76 21h-.5v.5h.5V21zm0-20V.5h-.5V1h.5zm7 20v.5h.5V21H83zm0-20h.5V.5H83V1zm11.897 9.791l.4-.3-.9-1.194v1.494h.5zM102.593 21l-.399.301.15.199h.249V21zm-7.696 0v.5h.5V21h-.5zM89 21h-.5v.5h.5V21zm0-20V.5h-.5V1h.5zm5.42 0l.4-.3-.15-.2h-.25V1zm7.723 10.279l-.399.3.899 1.197V11.28h-.5zm0-10.279V.5h-.5V1h.5zM108 1h.5V.5h-.5V1zm0 20v.5h.5V21h-.5zm13.563-14.972v-.5h-.5v.5h.5zm0 2.451h-.5v.5h.5v-.5zm10.189-2.451v.5h.5v-.5h-.5zm0-5.028h.5V.5h-.5V1zM115 1V.5h-.5V1h.5zm0 20h-.5v.5h.5V21zm17 0v.5h.5V21h-.5zm0-5.014h.5v-.5h-.5v.5zm-10.437 0h-.5v.5h.5v-.5zm0-2.493v-.5h-.5v.5h.5zm9.251 0v.5h.5v-.5h-.5zm0-5.014h.5v-.5h-.5v.5zm19.273-6.853l-.134.482.134-.482zM154 3.313l.452.214.188-.398-.371-.237-.269.42zm-2.321 4.898l-.241.438.466.256.227-.48-.452-.214zm-4.736.258l.128-.483h-.002l-.126.483zm-6.416 11.715l.149-.478-.149.478zm-4.527-2.3l-.448-.22-.181.366.323.25.306-.396zm2.388-4.843l.32-.384-.487-.406-.281.569.448.22zm3.677 2.13l-.19.462.19-.463zm4.48-1.09l.207-.454-.207.455zm-2.449-.768l.121-.485h-.002l-.119.485zm-3.427-1.061l.187-.464-.187.464zm.533-10.47l-.192-.461.192.461zm31.885-.156l-.134.482.134-.482zm-8.885.156l-.192-.461.192.461zm-.533 10.47l.187-.464-.187.464zm3.427 1.06l.121-.484h-.002l-.119.485zm2.449.77l.207-.456-.207.456zm-4.48 1.088l-.19.463.19-.463zm-3.677-2.13l.32-.383-.487-.406-.281.569.448.22zM159 17.885l-.448-.22-.181.366.323.25.306-.396zm4.527 2.3l.149-.478-.149.478zm6.416-11.715l.128-.483h-.002l-.126.483zm4.736-.258l-.241.438.466.256.227-.48-.452-.214zM177 3.313l.452.214.188-.398-.371-.237-.269.42zM14.766 1.5c1.496 0 2.786.203 3.88.597l.34-.94C17.758.714 16.35.5 14.765.5v1zM5 1.5h9.766v-1H5v1zM5.5 21V1h-1v20h1zm9.736-.5H5v1h10.236v-1zm3.901-.648c-1.093.427-2.39.648-3.901.648v1c1.605 0 3.03-.234 4.265-.717l-.364-.931zm2.497-1.8c-.58.77-1.404 1.373-2.497 1.8l.364.931c1.236-.483 2.222-1.188 2.93-2.128l-.797-.603zm.866-2.665c0 1.02-.29 1.903-.866 2.665l.798.603c.714-.946 1.068-2.041 1.068-3.268h-1zm-.946-2.97c.626.824.946 1.806.946 2.97h1c0-1.361-.379-2.56-1.15-3.575l-.796.605zm-2.496-1.599c1.045.244 1.87.775 2.496 1.599l.796-.605c-.77-1.015-1.8-1.672-3.065-1.967l-.227.973zm2.085-2.417c-.519.69-1.218 1.175-2.119 1.453l.295.955c1.088-.335 1.969-.937 2.623-1.807l-.8-.6zm.78-2.345a3.79 3.79 0 01-.78 2.345l.8.601a4.79 4.79 0 00.98-2.946h-1zm-.821-2.344c.547.67.82 1.443.82 2.344h1c0-1.124-.348-2.123-1.046-2.977l-.774.633zm-2.456-1.615c1.096.395 1.903.94 2.456 1.615l.774-.633c-.693-.847-1.667-1.482-2.89-1.923l-.34.941zM12 9.5h2.714v-1H12v1zM11.5 7v2h1V7h-1zm3.214-.5H12v1h2.714v-1zm1.24.373c-.346-.265-.776-.373-1.24-.373v1c.314 0 .508.072.63.166l.61-.793zM16.5 7.98c0-.45-.19-.833-.547-1.107l-.609.793a.356.356 0 01.156.314h1zm-.54 1.132c.357-.284.54-.677.54-1.132h-1c0 .16-.051.26-.162.35l.622.782zm-1.246.388c.468 0 .9-.113 1.246-.388l-.623-.783c-.122.098-.313.171-.623.171v1zm-1.046 6H10v1h3.668v-1zm1.413-.35c-.314.217-.77.35-1.413.35v1c.772 0 1.447-.159 1.98-.527l-.567-.823zm.419-.725c0 .282-.114.515-.42.725l.569.823c.542-.374.851-.899.851-1.548h-1zm-.403-.607c.31.188.403.384.403.607h1c0-.636-.335-1.13-.884-1.462l-.519.855zm-1.43-.318c.64 0 1.104.12 1.43.318l.519-.855c-.532-.323-1.194-.463-1.948-.463v1zM10 13.5h3.668v-1H10v1zm.5 2.5v-3h-1v3h1zm36-3.626c0 1.644-.368 3.067-1.089 4.285l.861.51c.824-1.393 1.228-2.997 1.228-4.795h-1zM46.5 1v11.374h1V1h-1zm-6.05.5H47v-1h-6.55v1zm.5 10.874V1h-1v11.374h1zm-.939 2.667c.642-.693.94-1.6.94-2.667h-1c0 .874-.24 1.52-.674 1.989l.734.678zm-2.415 1.033c.96 0 1.778-.344 2.415-1.033l-.734-.678c-.438.474-.986.711-1.68.711v1zm-2.513-1.048a3.42 3.42 0 002.514 1.048v-1a2.422 2.422 0 01-1.803-.751l-.71.703zm-1.034-2.652c0 1.05.338 1.948 1.034 2.652l.711-.703c-.49-.496-.745-1.131-.745-1.95h-1zM34.05 1v11.374h1V1h-1zM28 1.5h6.55v-1H28v1zm.5 10.874V1h-1v11.374h1zm1.113 4.28c-.737-1.217-1.113-2.638-1.113-4.28h-1c0 1.8.414 3.406 1.258 4.798l.855-.518zm3.15 2.832c-1.367-.67-2.411-1.613-3.15-2.832l-.855.518c.843 1.392 2.037 2.463 3.565 3.212l.44-.898zM37.57 20.5c-1.84 0-3.438-.343-4.806-1.014l-.44.898c1.528.75 3.28 1.116 5.246 1.116v-1zm4.76-1.012c-1.337.669-2.92 1.012-4.76 1.012v1c1.965 0 3.706-.367 5.208-1.117l-.447-.895zm3.082-2.83c-.72 1.219-1.743 2.161-3.081 2.83l.447.895c1.502-.75 2.672-1.823 3.495-3.215l-.86-.51zm21.81-15.514A17.323 17.323 0 0062.567.5v1c1.464 0 2.926.202 4.386.608l.268-.964zm4.048 1.748c-1.155-.74-2.507-1.32-4.048-1.748l-.268.964c1.463.406 2.72.95 3.778 1.626l.538-.842zm-2.138 5.533l2.32-4.898-.903-.428-2.32 4.898.903.428zm-4.177-1.336c1.26.455 2.42.975 3.484 1.56l.482-.876a25.416 25.416 0 00-3.627-1.624l-.339.94zm-2.94-.664c.706 0 1.68.21 2.94.664l.34-.94c-1.303-.47-2.404-.724-3.28-.724v1zm-.688.317c0-.133.038-.172.08-.2.077-.053.254-.117.608-.117v-1c-.438 0-.855.073-1.174.292-.354.243-.514.613-.514 1.025h1zm.46.505c-.396-.183-.46-.361-.46-.505h-1c0 .671.435 1.133 1.039 1.412l.42-.907zm2.283.739c-1.074-.28-1.827-.527-2.284-.739l-.42.907c.541.251 1.367.517 2.452.8l.252-.968zm3.545 1.166c-.943-.402-2.126-.79-3.543-1.166l-.256.967c1.39.368 2.523.742 3.406 1.12l.393-.92zm2.59 1.963c-.735-.88-1.598-1.539-2.59-1.963l-.393.92c.835.357 1.572.914 2.214 1.684l.768-.64zm1.148 3.627c0-1.462-.366-2.689-1.149-3.627l-.768.64c.594.713.917 1.691.917 2.986h1zm-1.191 3.802c.803-1.037 1.19-2.316 1.19-3.803h-1c0 1.307-.336 2.36-.98 3.19l.79.613zm-3.165 2.245c1.315-.482 2.376-1.228 3.165-2.245l-.79-.612c-.661.852-1.56 1.493-2.72 1.918l.345.94zm-4.294.711c1.561 0 2.995-.234 4.294-.71l-.344-.94c-1.175.43-2.49.65-3.95.65v1zm-5.324-.84c1.785.56 3.56.84 5.324.84v-1c-1.656 0-3.33-.263-5.026-.794l-.298.955zm-4.684-2.38c1.33 1.03 2.894 1.821 4.684 2.38l.298-.954c-1.691-.528-3.145-1.27-4.37-2.217l-.612.79zm2.246-5.46l-2.388 4.843.896.442 2.389-4.843-.897-.442zm4.315 1.887c-1.435-.588-2.614-1.274-3.547-2.05l-.64.768c1.028.856 2.3 1.59 3.808 2.208l.379-.925zm3.5.868c-.896 0-2.057-.276-3.5-.867l-.38.925c1.5.614 2.798.942 3.88.942v-1zm1.052-.507c0 .184-.058.27-.16.336-.14.09-.412.17-.891.17v1c.555 0 1.058-.086 1.436-.331.415-.27.615-.688.615-1.175h-1zm-.47-.531c.397.18.47.364.47.531h1c0-.686-.434-1.16-1.055-1.441l-.414.91zm-2.362-.739c1.119.28 1.898.527 2.363.739l.414-.91c-.552-.252-1.405-.517-2.535-.8l-.242.971zm-3.494-1.083c.947.384 2.114.744 3.496 1.084l.238-.972c-1.353-.332-2.47-.679-3.359-1.039l-.375.927zm-2.575-1.881a6.599 6.599 0 002.575 1.881l.375-.927a5.599 5.599 0 01-2.188-1.601l-.762.647zm-1.124-3.48c0 1.4.358 2.578 1.124 3.48l.762-.647c-.574-.677-.886-1.604-.886-2.833h-1zm1.11-3.643c-.744 1.049-1.11 2.27-1.11 3.643h1c0-1.185.313-2.2.926-3.065l-.815-.578zm3.118-2.39c-1.328.551-2.375 1.345-3.117 2.39l.815.578c.617-.868 1.503-1.554 2.686-2.045l-.384-.923zM62.567.5c-1.707 0-3.23.269-4.557.82l.384.924c1.182-.491 2.57-.744 4.173-.744v-1zM76.5 21V1h-1v20h1zm6.5-.5h-7v1h7v-1zM82.5 1v20h1V1h-1zm-6.5.5h7v-1h-7v1zm18.498 9.592l7.696 10.209.798-.602-7.695-10.209-.799.602zm.9 9.908V10.791h-1V21h1zM89 21.5h5.897v-1H89v1zM88.5 1v20h1V1h-1zm5.92-.5H89v1h5.42v-1zm8.123 10.478L94.82.7l-.799.6 7.723 10.279.799-.6zm-.9-9.978v10.279h1V1h-1zM108 .5h-5.857v1H108v-1zm.5 20.5V1h-1v20h1zm-5.907.5H108v-1h-5.407v1zm18.47-15.472v2.451h1V6.028h-1zm10.689-.5h-10.189v1h10.189v-1zm-.5-4.528v5.028h1V1h-1zM115 1.5h16.752v-1H115v1zm.5 19.5V1h-1v20h1zm16.5-.5h-17v1h17v-1zm-.5-4.514V21h1v-5.014h-1zm-9.937.5H132v-1h-10.437v1zm-.5-2.993v2.493h1v-2.493h-1zm9.751-.5h-9.251v1h9.251v-1zm-.5-4.514v5.014h1V8.479h-1zm-8.751.5h9.251v-1h-9.251v1zm28.658-7.835A17.324 17.324 0 00145.567.5v1c1.464 0 2.926.202 4.386.608l.268-.964zm4.048 1.748c-1.155-.74-2.507-1.32-4.048-1.748l-.268.964c1.463.406 2.72.95 3.778 1.626l.538-.842zm-2.138 5.533l2.321-4.898-.904-.428-2.321 4.898.904.428zm-4.177-1.336c1.26.455 2.421.975 3.484 1.56l.482-.876a25.404 25.404 0 00-3.627-1.624l-.339.94zm-2.941-.664c.707 0 1.68.21 2.941.664l.339-.94c-1.302-.47-2.403-.724-3.28-.724v1zm-.687.317c0-.133.038-.172.08-.2.076-.053.253-.117.607-.117v-1c-.437 0-.854.073-1.173.292-.354.243-.514.613-.514 1.025h1zm.459.505c-.395-.183-.459-.361-.459-.505h-1c0 .671.435 1.133 1.039 1.412l.42-.907zm2.284.739c-1.074-.28-1.827-.527-2.284-.739l-.42.907c.541.251 1.367.517 2.452.8l.252-.968zm3.545 1.166c-.943-.402-2.126-.79-3.543-1.166l-.256.967c1.39.368 2.523.742 3.406 1.12l.393-.92zm2.589 1.963c-.734-.88-1.597-1.539-2.589-1.963l-.393.92c.835.357 1.573.914 2.214 1.684l.768-.64zm1.149 3.627c0-1.462-.366-2.689-1.149-3.627l-.768.64c.594.713.917 1.691.917 2.986h1zm-1.191 3.802c.803-1.037 1.191-2.316 1.191-3.803h-1c0 1.307-.337 2.36-.982 3.19l.791.613zm-3.165 2.245c1.315-.482 2.376-1.228 3.165-2.245l-.791-.612c-.66.852-1.559 1.493-2.718 1.918l.344.94zm-4.294.711c1.561 0 2.994-.234 4.294-.71l-.344-.94c-1.175.43-2.489.65-3.95.65v1zm-5.324-.84c1.785.56 3.561.84 5.324.84v-1c-1.656 0-3.33-.263-5.026-.794l-.298.955zm-4.684-2.38c1.33 1.03 2.894 1.821 4.684 2.38l.298-.954c-1.691-.528-3.145-1.27-4.37-2.217l-.612.79zm2.246-5.46l-2.388 4.843.896.442 2.389-4.843-.897-.442zm4.315 1.887c-1.435-.588-2.614-1.274-3.547-2.05l-.64.768c1.028.856 2.301 1.59 3.807 2.208l.38-.925zm3.501.868c-.897 0-2.058-.276-3.501-.867l-.38.925c1.499.614 2.799.942 3.881.942v-1zm1.051-.507c0 .184-.058.27-.16.336-.139.09-.412.17-.891.17v1c.555 0 1.058-.086 1.436-.331.415-.27.615-.688.615-1.175h-1zm-.469-.531c.396.18.469.364.469.531h1c0-.686-.435-1.16-1.055-1.441l-.414.91zm-2.363-.739c1.119.28 1.898.527 2.363.739l.414-.91c-.552-.252-1.405-.517-2.535-.8l-.242.971zm-3.494-1.083c.947.384 2.114.744 3.496 1.084l.238-.972c-1.353-.332-2.47-.679-3.359-1.039l-.375.927zm-2.575-1.881a6.599 6.599 0 002.575 1.881l.375-.927a5.605 5.605 0 01-2.188-1.601l-.762.647zm-1.124-3.48c0 1.4.358 2.578 1.124 3.48l.762-.647c-.574-.677-.886-1.604-.886-2.833h-1zm1.111-3.643c-.745 1.049-1.111 2.27-1.111 3.643h1c0-1.185.313-2.2.926-3.065l-.815-.578zm3.117-2.39c-1.328.551-2.375 1.345-3.117 2.39l.815.578c.617-.868 1.503-1.554 2.686-2.045l-.384-.923zM145.567.5c-1.707 0-3.23.269-4.557.82l.384.924c1.182-.491 2.569-.744 4.173-.744v-1zm23 1c1.464 0 2.926.202 4.386.608l.268-.964A17.324 17.324 0 00168.567.5v1zm-4.173.744c1.182-.491 2.569-.744 4.173-.744v-1c-1.707 0-3.23.269-4.557.82l.384.924zm-2.686 2.045c.617-.868 1.503-1.554 2.686-2.045l-.384-.923c-1.328.551-2.375 1.345-3.117 2.39l.815.578zm-.926 3.065c0-1.185.313-2.2.926-3.065l-.815-.578c-.745 1.049-1.111 2.27-1.111 3.643h1zm.886 2.833c-.574-.677-.886-1.604-.886-2.833h-1c0 1.4.358 2.578 1.124 3.48l.762-.647zm2.188 1.601a5.605 5.605 0 01-2.188-1.601l-.762.647a6.599 6.599 0 002.575 1.881l.375-.927zm3.359 1.04c-1.353-.333-2.47-.68-3.359-1.04l-.375.927c.947.384 2.114.744 3.496 1.084l.238-.972zm2.537.799c-.552-.252-1.405-.517-2.535-.8l-.242.971c1.119.28 1.898.527 2.363.739l.414-.91zm1.055 1.441c0-.686-.435-1.16-1.055-1.441l-.414.91c.396.18.469.364.469.531h1zm-2.051 1.507c.555 0 1.058-.087 1.436-.332.415-.27.615-.688.615-1.175h-1c0 .184-.058.27-.16.336-.139.09-.412.17-.891.17v1zm-3.881-.942c1.499.614 2.799.942 3.881.942v-1c-.897 0-2.058-.276-3.501-.867l-.38.925zm-3.807-2.208c1.028.856 2.301 1.59 3.807 2.208l.38-.925c-1.435-.589-2.614-1.275-3.547-2.051l-.64.768zm-1.62 4.68l2.389-4.843-.897-.442-2.388 4.843.896.442zm4.228 1.601c-1.691-.528-3.145-1.27-4.37-2.217l-.612.79c1.33 1.03 2.894 1.822 4.684 2.382l.298-.955zm5.026.794c-1.656 0-3.33-.263-5.026-.794l-.298.955c1.785.558 3.561.839 5.324.839v-1zm3.95-.65c-1.175.43-2.489.65-3.95.65v1c1.561 0 2.994-.234 4.294-.71l-.344-.94zm2.718-1.918c-.66.852-1.559 1.493-2.718 1.918l.344.94c1.315-.483 2.376-1.229 3.165-2.246l-.791-.612zm.982-3.19c0 1.306-.337 2.358-.982 3.19l.791.612c.803-1.037 1.191-2.316 1.191-3.803h-1zm-.917-2.986c.594.712.917 1.69.917 2.986h1c0-1.462-.366-2.689-1.149-3.627l-.768.64zm-2.214-1.684c.835.357 1.573.914 2.214 1.684l.768-.64c-.734-.882-1.597-1.54-2.589-1.964l-.393.92zm-3.406-1.12c1.39.369 2.523.743 3.406 1.12l.393-.92c-.943-.402-2.126-.79-3.543-1.166l-.256.967zm-2.45-.798c.541.251 1.367.517 2.452.8l.252-.968c-1.074-.28-1.827-.527-2.284-.739l-.42.907zm-1.039-1.412c0 .671.435 1.133 1.039 1.412l.42-.907c-.395-.183-.459-.361-.459-.505h-1zm1.687-1.317c-.437 0-.854.073-1.173.292-.354.243-.514.613-.514 1.025h1c0-.133.038-.172.08-.2.076-.053.253-.117.607-.117v-1zm3.28.724c-1.302-.47-2.403-.724-3.28-.724v1c.707 0 1.68.21 2.941.664l.339-.94zm3.627 1.624a25.404 25.404 0 00-3.627-1.624l-.339.94c1.26.455 2.421.975 3.484 1.56l.482-.876zm1.628-4.674l-2.321 4.898.904.428 2.321-4.898-.904-.428zm-3.595-.991c1.463.406 2.72.95 3.778 1.626l.538-.842c-1.155-.74-2.507-1.32-4.048-1.748l-.268.964z" fill="#000"/></g><defs><filter id="filter0_d" x=".5" y=".5" width="181.14" height="29" filterUnits="userSpaceOnUse" color-interpolation-filters="sRGB"><feFlood flood-opacity="0" result="BackgroundImageFix"/><feColorMatrix in="SourceAlpha" values="0 0 0 0 0 0 0 0 0 0 0 0 0 0 0 0 0 0 127 0"/><feOffset dy="4"/><feGaussianBlur stdDeviation="2"/><feColorMatrix values="0 0 0 0 0 0 0 0 0 0 0 0 0 0 0 0 0 0 0.25 0"/><feBlend in2="BackgroundImageFix" result="effect1_dropShadow"/><feBlend in="SourceGraphic" in2="effect1_dropShadow" result="shape"/></filter></defs></svg>